<svg class="social-icon" viewBox="0 0 24 24" fill="currentColor" aria-hidden="true">
  <path d="M20.3 4.4a19.8 19.8 0 00-4.9-1.5c-.2.4-.5.9-.6 1.3-1.8-.3-3.7-.3-5.5 0-.2-.4-.4-.9-.6-1.3a19.7 19.7 0 00-4.9 1.5C2.2 9 1.3 13.6 1.7 18.1c2.1 1.5 4.1 2.4 6 3l1.2-2c-.7-.3-1.3-.5-1.9-.9.1-.1.3-.2.4-.3 3.9 1.8 8.2 1.8 12.1 0 .1.1.3.2.4.3-.6.3-1.2.6-1.9.9l1.2 2c1.9-.6 3.9-1.5 6-3 .5-5.2-.8-9.7-3.6-13.7zM8 15.3c-1.2 0-2.2-1.1-2.2-2.4 0-1.3 1-2.4 2.2-2.4s2.2 1.1 2.2 2.4c0 1.3-1 2.4-2.2 2.4zm8 0c-1.2 0-2.2-1.1-2.2-2.4 0-1.3 1-2.4 2.2-2.4s2.2 1.1 2.2 2.4c0 1.3-1 2.4-2.2 2.4z"/>
</svg>