<?xml version="1.0" encoding="UTF-8" standalone="no"?>
<svg xmlns="http://www.w3.org/2000/svg" viewBox="0 0 1024 1024">
  <g>
    <path d="M 485 898 Z" fill="black"/>
<path d="M 544 897 Z" fill="black"/>
<path d="M 538 897 Z" fill="black"/>
<path d="M 493 897 Z" fill="black"/>
<path d="M 538 895 Z" fill="black"/>
<path d="M 533 895 Z" fill="black"/>
<path d="M 508 895 Z" fill="black"/>
<path d="M 495 895 Z" fill="black"/>
<path d="M 450 895 Z" fill="black"/>
<path d="M 512 894 Z" fill="black"/>
<path d="M 470 894 Z" fill="black"/>
<path d="M 418 894 Z" fill="black"/>
<path d="M 538 893 Z" fill="black"/>
<path d="M 483 893 Z" fill="black"/>
<path d="M 445 893 L 446 894 L 445 895 L 446 896 L 445 895 L 446 894 Z" fill="black"/>
<path d="M 440 893 Z" fill="black"/>
<path d="M 437 893 Z" fill="black"/>
<path d="M 568 892 Z" fill="black"/>
<path d="M 512 892 Z" fill="black"/>
<path d="M 470 892 Z" fill="black"/>
<path d="M 464 892 L 465 893 Z" fill="black"/>
<path d="M 574 891 Z" fill="black"/>
<path d="M 548 891 Z" fill="black"/>
<path d="M 525 891 Z" fill="black"/>
<path d="M 506 891 Z" fill="black"/>
<path d="M 504 891 Z" fill="black"/>
<path d="M 502 891 Z" fill="black"/>
<path d="M 453 891 L 454 892 L 453 893 L 454 892 Z" fill="black"/>
<path d="M 450 891 Z" fill="black"/>
<path d="M 440 891 Z" fill="black"/>
<path d="M 495 890 Z" fill="black"/>
<path d="M 474 890 Z" fill="black"/>
<path d="M 467 890 Z" fill="black"/>
<path d="M 461 890 Z" fill="black"/>
<path d="M 560 889 Z" fill="black"/>
<path d="M 548 889 Z" fill="black"/>
<path d="M 541 889 Z" fill="black"/>
<path d="M 525 889 Z" fill="black"/>
<path d="M 450 889 Z" fill="black"/>
<path d="M 432 889 L 433 890 Z" fill="black"/>
<path d="M 568 888 Z" fill="black"/>
<path d="M 565 888 L 564 889 Z" fill="black"/>
<path d="M 553 888 L 554 889 Z" fill="black"/>
<path d="M 533 888 Z" fill="black"/>
<path d="M 467 888 Z" fill="black"/>
<path d="M 464 888 L 465 889 Z" fill="black"/>
<path d="M 458 888 L 457 889 L 458 890 L 457 891 L 458 892 L 457 891 L 458 890 L 457 889 Z" fill="black"/>
<path d="M 439 888 Z" fill="black"/>
<path d="M 548 887 Z" fill="black"/>
<path d="M 545 887 Z" fill="black"/>
<path d="M 541 887 Z" fill="black"/>
<path d="M 571 886 L 572 887 L 573 886 L 572 887 Z" fill="black"/>
<path d="M 568 886 Z" fill="black"/>
<path d="M 553 886 Z" fill="black"/>
<path d="M 533 886 Z" fill="black"/>
<path d="M 541 885 Z" fill="black"/>
<path d="M 507 885 Z" fill="black"/>
<path d="M 497 885 Z" fill="black"/>
<path d="M 482 885 Z" fill="black"/>
<path d="M 465 885 Z" fill="black"/>
<path d="M 460 885 L 461 886 Z" fill="black"/>
<path d="M 571 884 Z" fill="black"/>
<path d="M 565 884 Z" fill="black"/>
<path d="M 514 884 Z" fill="black"/>
<path d="M 499 884 Z" fill="black"/>
<path d="M 495 884 Z" fill="black"/>
<path d="M 458 884 Z" fill="black"/>
<path d="M 558 883 Z" fill="black"/>
<path d="M 541 883 Z" fill="black"/>
<path d="M 517 883 Z" fill="black"/>
<path d="M 512 883 Z" fill="black"/>
<path d="M 487 883 Z" fill="black"/>
<path d="M 543 882 Z" fill="black"/>
<path d="M 495 882 Z" fill="black"/>
<path d="M 481 882 Z" fill="black"/>
<path d="M 474 882 Z" fill="black"/>
<path d="M 552 881 Z" fill="black"/>
<path d="M 549 881 L 550 882 L 549 883 L 550 884 L 549 883 L 550 882 Z" fill="black"/>
<path d="M 547 880 L 546 881 L 547 882 L 546 881 Z" fill="black"/>
<path d="M 543 880 Z" fill="black"/>
<path d="M 495 880 Z" fill="black"/>
<path d="M 492 880 L 493 881 Z" fill="black"/>
<path d="M 552 879 Z" fill="black"/>
<path d="M 493 877 Z" fill="black"/>
<path d="M 488 877 Z" fill="black"/>
<path d="M 505 874 L 504 875 L 503 875 L 503 876 L 502 877 L 500 877 L 500 878 L 503 881 L 502 882 L 501 882 L 499 880 L 498 880 L 497 881 L 498 882 L 499 882 L 500 881 L 501 882 L 501 883 L 502 882 L 503 883 L 504 882 L 505 883 L 506 883 L 509 880 L 510 881 L 510 882 L 510 881 L 511 880 L 512 881 L 513 881 L 514 882 L 515 882 L 517 880 L 518 881 L 519 881 L 520 882 L 521 882 L 523 884 L 521 882 L 523 880 L 522 879 L 523 878 L 524 878 L 525 879 L 526 879 L 527 880 L 525 882 L 528 882 L 527 881 L 527 880 L 528 879 L 529 880 L 530 880 L 531 881 L 530 882 L 531 883 L 530 884 L 531 885 L 530 886 L 531 885 L 530 884 L 531 883 L 530 882 L 531 881 L 530 880 L 530 879 L 531 878 L 532 878 L 533 879 L 533 880 L 534 881 L 533 882 L 534 883 L 533 884 L 534 883 L 533 882 L 534 881 L 535 881 L 537 883 L 538 883 L 539 884 L 538 883 L 539 882 L 538 881 L 539 880 L 538 881 L 537 881 L 535 879 L 534 879 L 533 878 L 533 877 L 532 877 L 531 876 L 530 877 L 529 876 L 528 876 L 527 877 L 526 876 L 525 876 L 524 877 L 523 876 L 521 876 L 520 875 L 519 875 L 518 874 L 517 874 L 516 875 L 515 874 Z" fill="black"/>
<path d="M 494 178 L 493 179 L 482 179 L 481 180 L 474 180 L 473 181 L 468 181 L 467 182 L 462 182 L 461 183 L 457 183 L 456 184 L 451 184 L 450 185 L 447 185 L 446 186 L 442 186 L 441 187 L 437 187 L 436 188 L 433 188 L 432 189 L 429 189 L 428 190 L 426 190 L 425 191 L 423 191 L 422 192 L 419 192 L 418 193 L 415 193 L 414 194 L 412 194 L 411 195 L 409 195 L 408 196 L 406 196 L 405 197 L 403 197 L 402 198 L 400 198 L 399 199 L 398 199 L 397 200 L 395 200 L 394 201 L 392 201 L 391 202 L 389 202 L 388 203 L 387 203 L 386 204 L 384 204 L 383 205 L 382 205 L 381 206 L 380 206 L 379 207 L 377 207 L 376 208 L 375 208 L 374 209 L 373 209 L 372 210 L 370 210 L 369 211 L 368 211 L 367 212 L 366 212 L 365 213 L 364 213 L 363 214 L 362 214 L 361 215 L 360 215 L 359 216 L 358 216 L 357 217 L 356 217 L 355 218 L 354 218 L 353 219 L 351 219 L 349 221 L 348 221 L 347 222 L 346 222 L 345 223 L 344 223 L 342 225 L 341 225 L 340 226 L 339 226 L 338 227 L 337 227 L 336 228 L 335 228 L 333 230 L 332 230 L 330 232 L 329 232 L 328 233 L 327 233 L 325 235 L 324 235 L 322 237 L 321 237 L 319 239 L 318 239 L 316 241 L 315 241 L 313 243 L 312 243 L 309 246 L 308 246 L 306 248 L 305 248 L 301 252 L 300 252 L 297 255 L 296 255 L 290 261 L 289 261 L 281 269 L 280 269 L 258 291 L 258 292 L 252 298 L 252 299 L 247 304 L 247 305 L 244 308 L 244 309 L 240 313 L 240 314 L 237 317 L 237 318 L 235 320 L 235 321 L 233 323 L 233 324 L 230 327 L 230 328 L 228 330 L 228 331 L 226 333 L 226 334 L 225 335 L 225 336 L 223 338 L 223 339 L 221 341 L 221 342 L 220 343 L 220 344 L 219 345 L 219 346 L 217 348 L 217 349 L 216 350 L 216 351 L 215 352 L 215 353 L 214 354 L 214 355 L 213 356 L 213 357 L 212 358 L 212 359 L 211 360 L 211 361 L 210 362 L 210 363 L 209 364 L 209 365 L 208 366 L 208 367 L 207 368 L 207 369 L 206 370 L 206 371 L 205 372 L 205 373 L 204 374 L 204 375 L 203 376 L 203 377 L 202 378 L 202 379 L 201 380 L 201 382 L 200 383 L 200 384 L 199 385 L 199 386 L 198 387 L 198 389 L 197 390 L 197 391 L 196 392 L 196 394 L 195 395 L 195 396 L 194 397 L 194 399 L 193 400 L 193 402 L 192 403 L 192 405 L 191 406 L 191 408 L 190 409 L 190 412 L 189 413 L 189 414 L 188 415 L 188 417 L 187 418 L 187 420 L 186 421 L 186 424 L 185 425 L 185 428 L 184 429 L 184 432 L 183 433 L 183 437 L 182 438 L 182 441 L 181 442 L 181 445 L 180 446 L 180 450 L 179 451 L 179 456 L 178 457 L 178 462 L 177 463 L 177 470 L 176 471 L 176 479 L 175 480 L 175 489 L 174 490 L 174 505 L 173 506 L 173 532 L 174 533 L 174 547 L 175 548 L 175 556 L 176 557 L 176 565 L 177 566 L 177 572 L 178 573 L 178 579 L 179 580 L 179 583 L 180 584 L 180 588 L 181 589 L 181 592 L 182 593 L 182 596 L 183 597 L 183 600 L 184 601 L 184 604 L 185 605 L 185 608 L 186 609 L 186 612 L 187 613 L 187 615 L 188 616 L 188 618 L 189 619 L 189 622 L 190 623 L 190 625 L 191 626 L 191 628 L 192 629 L 192 631 L 193 632 L 193 634 L 194 635 L 194 636 L 195 637 L 195 639 L 196 640 L 196 642 L 197 643 L 197 644 L 198 645 L 198 646 L 199 647 L 199 648 L 200 649 L 200 651 L 201 652 L 201 653 L 202 654 L 202 655 L 203 656 L 203 657 L 204 658 L 204 660 L 205 661 L 205 662 L 206 663 L 206 664 L 208 666 L 208 667 L 209 668 L 209 669 L 210 670 L 210 671 L 211 672 L 211 673 L 212 674 L 212 675 L 213 676 L 213 677 L 214 678 L 214 679 L 215 680 L 215 681 L 217 683 L 217 684 L 218 685 L 218 686 L 219 687 L 219 688 L 221 690 L 221 691 L 223 693 L 223 694 L 224 695 L 224 696 L 226 698 L 226 699 L 228 701 L 228 702 L 230 704 L 230 705 L 233 708 L 233 709 L 236 712 L 236 713 L 238 715 L 238 716 L 241 719 L 241 720 L 244 723 L 244 724 L 247 727 L 247 728 L 250 731 L 250 732 L 254 736 L 254 737 L 260 743 L 260 744 L 292 776 L 293 776 L 299 782 L 300 782 L 305 787 L 306 787 L 309 790 L 310 790 L 312 792 L 313 792 L 316 795 L 317 795 L 319 797 L 320 797 L 323 800 L 324 800 L 325 801 L 326 801 L 328 803 L 329 803 L 331 805 L 332 805 L 334 807 L 335 807 L 336 808 L 337 808 L 338 809 L 339 809 L 341 811 L 342 811 L 343 812 L 344 812 L 345 813 L 346 813 L 347 814 L 348 814 L 350 816 L 351 816 L 352 817 L 353 817 L 354 818 L 355 818 L 356 819 L 357 819 L 358 820 L 359 820 L 360 821 L 361 821 L 362 822 L 363 822 L 364 823 L 366 823 L 367 824 L 368 824 L 369 825 L 370 825 L 371 826 L 372 826 L 373 827 L 374 827 L 375 828 L 377 828 L 378 829 L 379 829 L 380 830 L 381 830 L 382 831 L 384 831 L 385 832 L 386 832 L 387 833 L 389 833 L 390 834 L 391 834 L 392 835 L 394 835 L 395 836 L 396 836 L 397 837 L 399 837 L 400 838 L 402 838 L 403 839 L 405 839 L 406 840 L 408 840 L 409 841 L 411 841 L 412 842 L 414 842 L 415 843 L 417 843 L 418 844 L 420 844 L 421 845 L 424 845 L 425 846 L 427 846 L 428 847 L 431 847 L 432 848 L 435 848 L 436 849 L 440 849 L 441 850 L 445 850 L 446 851 L 449 851 L 450 852 L 454 852 L 455 853 L 459 853 L 460 854 L 464 854 L 465 855 L 470 855 L 471 856 L 477 856 L 478 857 L 487 857 L 488 858 L 503 858 L 504 859 L 534 859 L 535 858 L 546 858 L 547 857 L 555 857 L 556 856 L 562 856 L 563 855 L 568 855 L 569 854 L 573 854 L 574 853 L 578 853 L 579 852 L 583 852 L 584 851 L 588 851 L 589 850 L 593 850 L 594 849 L 597 849 L 598 848 L 601 848 L 602 847 L 605 847 L 606 846 L 608 846 L 609 845 L 612 845 L 613 844 L 616 844 L 617 843 L 619 843 L 620 842 L 622 842 L 623 841 L 625 841 L 626 840 L 628 840 L 629 839 L 631 839 L 632 838 L 634 838 L 635 837 L 636 837 L 637 836 L 639 836 L 640 835 L 641 835 L 642 834 L 644 834 L 645 833 L 647 833 L 648 832 L 649 832 L 650 831 L 652 831 L 653 830 L 654 830 L 655 829 L 656 829 L 657 828 L 658 828 L 659 827 L 661 827 L 662 826 L 663 826 L 664 825 L 665 825 L 666 824 L 667 824 L 668 823 L 669 823 L 670 822 L 671 822 L 672 821 L 673 821 L 674 820 L 675 820 L 676 819 L 677 819 L 678 818 L 679 818 L 681 816 L 682 816 L 683 815 L 684 815 L 685 814 L 686 814 L 688 812 L 689 812 L 690 811 L 691 811 L 693 809 L 694 809 L 696 807 L 697 807 L 699 805 L 700 805 L 701 804 L 702 804 L 704 802 L 705 802 L 707 800 L 708 800 L 710 798 L 711 798 L 714 795 L 715 795 L 717 793 L 718 793 L 722 789 L 723 789 L 727 785 L 728 785 L 732 781 L 733 781 L 738 776 L 739 776 L 748 767 L 749 767 L 764 752 L 764 751 L 772 743 L 772 742 L 777 737 L 777 736 L 782 731 L 782 730 L 785 727 L 785 726 L 788 723 L 788 722 L 791 719 L 791 718 L 794 715 L 794 714 L 796 712 L 796 711 L 799 708 L 799 707 L 801 705 L 801 704 L 803 702 L 803 701 L 804 700 L 804 699 L 806 697 L 806 696 L 808 694 L 808 693 L 809 692 L 809 691 L 811 689 L 811 688 L 812 687 L 812 686 L 814 684 L 814 683 L 815 682 L 815 681 L 816 680 L 816 679 L 817 678 L 817 677 L 819 675 L 819 674 L 820 673 L 820 672 L 821 671 L 821 670 L 822 669 L 822 668 L 823 667 L 823 665 L 824 664 L 824 663 L 825 662 L 825 661 L 826 660 L 826 659 L 827 658 L 827 657 L 828 656 L 828 654 L 829 653 L 829 652 L 830 651 L 830 650 L 831 649 L 831 647 L 832 646 L 832 645 L 833 644 L 833 643 L 834 642 L 834 640 L 835 639 L 835 637 L 836 636 L 836 635 L 837 634 L 837 632 L 838 631 L 838 629 L 839 628 L 839 626 L 840 625 L 840 623 L 841 622 L 841 620 L 842 619 L 842 616 L 843 615 L 843 613 L 844 612 L 844 609 L 845 608 L 845 606 L 846 605 L 846 602 L 847 601 L 847 597 L 848 596 L 848 593 L 849 592 L 849 588 L 850 587 L 850 583 L 851 582 L 851 578 L 852 577 L 852 572 L 853 571 L 853 566 L 854 565 L 854 558 L 855 557 L 855 548 L 856 547 L 856 497 L 855 496 L 855 484 L 854 483 L 854 475 L 853 474 L 853 468 L 852 467 L 852 462 L 851 461 L 851 456 L 850 455 L 850 451 L 849 450 L 849 446 L 848 445 L 848 441 L 847 440 L 847 437 L 846 436 L 846 433 L 845 432 L 845 429 L 844 428 L 844 426 L 843 425 L 843 422 L 842 421 L 842 418 L 841 417 L 841 415 L 840 414 L 840 412 L 839 411 L 839 409 L 838 408 L 838 406 L 837 405 L 837 403 L 836 402 L 836 401 L 835 400 L 835 398 L 834 397 L 834 395 L 833 394 L 833 393 L 832 392 L 832 390 L 831 389 L 831 388 L 830 387 L 830 385 L 829 384 L 829 383 L 828 382 L 828 381 L 827 380 L 827 379 L 826 378 L 826 376 L 825 375 L 825 374 L 824 373 L 824 372 L 823 371 L 823 370 L 822 369 L 822 368 L 821 367 L 821 366 L 820 365 L 820 364 L 819 363 L 819 362 L 818 361 L 818 360 L 817 359 L 817 358 L 816 357 L 816 356 L 815 355 L 815 354 L 814 353 L 814 352 L 813 351 L 813 350 L 811 348 L 811 347 L 810 346 L 810 345 L 809 344 L 809 343 L 807 341 L 807 340 L 806 339 L 806 338 L 804 336 L 804 335 L 802 333 L 802 332 L 800 330 L 800 329 L 798 327 L 798 326 L 796 324 L 796 323 L 794 321 L 794 320 L 791 317 L 791 316 L 788 313 L 788 312 L 785 309 L 785 308 L 782 305 L 782 304 L 779 301 L 779 300 L 774 295 L 774 294 L 768 288 L 768 287 L 745 264 L 744 264 L 737 257 L 736 257 L 732 253 L 731 253 L 727 249 L 726 249 L 723 246 L 722 246 L 720 244 L 719 244 L 717 242 L 716 242 L 713 239 L 712 239 L 710 237 L 709 237 L 707 235 L 706 235 L 704 233 L 703 233 L 701 231 L 700 231 L 698 229 L 697 229 L 696 228 L 695 228 L 693 226 L 692 226 L 690 224 L 689 224 L 688 223 L 687 223 L 686 222 L 685 222 L 684 221 L 683 221 L 681 219 L 680 219 L 679 218 L 678 218 L 677 217 L 676 217 L 675 216 L 674 216 L 673 215 L 672 215 L 671 214 L 670 214 L 669 213 L 668 213 L 667 212 L 666 212 L 665 211 L 664 211 L 663 210 L 662 210 L 661 209 L 660 209 L 659 208 L 657 208 L 656 207 L 655 207 L 654 206 L 653 206 L 652 205 L 650 205 L 649 204 L 648 204 L 647 203 L 646 203 L 645 202 L 643 202 L 642 201 L 641 201 L 640 200 L 638 200 L 637 199 L 636 199 L 635 198 L 633 198 L 632 197 L 630 197 L 629 196 L 627 196 L 626 195 L 624 195 L 623 194 L 621 194 L 620 193 L 618 193 L 617 192 L 614 192 L 613 191 L 611 191 L 610 190 L 607 190 L 606 189 L 603 189 L 602 188 L 600 188 L 599 187 L 596 187 L 595 186 L 592 186 L 591 185 L 587 185 L 586 184 L 582 184 L 581 183 L 576 183 L 575 182 L 569 182 L 568 181 L 562 181 L 561 180 L 553 180 L 552 179 L 540 179 L 539 178 Z" fill="black"/>

  </g>
</svg>
